<?xml version="1.0"?>
<svg xmlns="http://www.w3.org/2000/svg" xmlns:xlink="http://www.w3.org/1999/xlink" xmlns:svgjs="http://svgjs.com/svgjs" version="1.1" width="512" height="512" x="0" y="0" viewBox="0 0 512 512" style="enable-background:new 0 0 512 512" xml:space="preserve" class=""><g><g xmlns="http://www.w3.org/2000/svg"><path d="m346 15.5h-210c-8.284 0-15 6.716-15 15v451c0 8.284 6.716 15 15 15h210c8.284 0 15-6.716 15-15v-451c0-8.284-6.716-15-15-15zm-60 211h45v30h-45zm0-30v-30h45v30zm0-60v-30h45v30zm0 150h45v30h-45zm-90-30h-45v-30h45zm0-60h-45v-30h45zm-45 90h45v30h-45zm45-150h-45v-30h45zm-45 330v-120h60c8.284 0 15-6.716 15-15v-240c0-8.284-6.716-15-15-15h-60v-31h180v31h-60c-8.284 0-15 6.716-15 15v240c0 8.284 6.716 15 15 15h60v120z" fill="#39b54a" data-original="#000000" style="" class=""/><circle cx="15" cy="91.5" r="15" fill="#39b54a" data-original="#000000" style="" class=""/><circle cx="76" cy="91.5" r="15" fill="#39b54a" data-original="#000000" style="" class=""/><circle cx="46" cy="151.5" r="15" fill="#39b54a" data-original="#000000" style="" class=""/><circle cx="15" cy="211.5" r="15" fill="#39b54a" data-original="#000000" style="" class=""/><circle cx="76" cy="211.5" r="15" fill="#39b54a" data-original="#000000" style="" class=""/><circle cx="46" cy="271.5" r="15" fill="#39b54a" data-original="#000000" style="" class=""/><circle cx="15" cy="331.5" r="15" fill="#39b54a" data-original="#000000" style="" class=""/><circle cx="76" cy="331.5" r="15" fill="#39b54a" data-original="#000000" style="" class=""/><path d="m461.5 256.5h-69.5c-8.284 0-15 6.716-15 15s6.716 15 15 15h69.5c11.304 0 20.5 9.196 20.5 20.5s-9.196 20.5-20.5 20.5c-9.405 0-17.579-6.354-19.877-15.45-2.029-8.031-10.188-12.899-18.217-10.869-8.032 2.029-12.898 10.185-10.869 18.217 5.668 22.434 25.802 38.102 48.963 38.102 27.846 0 50.5-22.654 50.5-50.5s-22.654-50.5-50.5-50.5z" fill="#39b54a" data-original="#000000" style="" class=""/><path d="m392 166.5h69.5c27.846 0 50.5-22.654 50.5-50.5s-22.654-50.5-50.5-50.5c-23.161 0-43.295 15.668-48.963 38.102-2.029 8.032 2.837 16.188 10.869 18.217 8.028 2.028 16.187-2.837 18.217-10.869 2.298-9.097 10.472-15.45 19.877-15.45 11.304 0 20.5 9.196 20.5 20.5s-9.196 20.5-20.5 20.5h-69.5c-8.284 0-15 6.716-15 15s6.716 15 15 15z" fill="#39b54a" data-original="#000000" style="" class=""/><path d="m391 226.5h45c8.284 0 15-6.716 15-15s-6.716-15-15-15h-45c-8.284 0-15 6.716-15 15s6.716 15 15 15z" fill="#39b54a" data-original="#000000" style="" class=""/><circle cx="497" cy="211.5" r="15" fill="#39b54a" data-original="#000000" style="" class=""/><path d="m256 406.5h-30c-8.284 0-15 6.716-15 15s6.716 15 15 15h30c8.284 0 15-6.716 15-15s-6.716-15-15-15z" fill="#39b54a" data-original="#000000" style="" class=""/></g></g></svg>
