<?xml version="1.0"?>
<svg xmlns="http://www.w3.org/2000/svg" xmlns:xlink="http://www.w3.org/1999/xlink" xmlns:svgjs="http://svgjs.com/svgjs" version="1.1" width="512" height="512" x="0" y="0" viewBox="0 0 511.999 511.999" style="enable-background:new 0 0 512 512" xml:space="preserve" class=""><g>
<g xmlns="http://www.w3.org/2000/svg">
	<g>
		<polygon points="243.066,78.097 269.914,11.402 242.084,0.199 198.65,108.097 268.932,108.097 242.084,174.791 269.914,185.994     313.348,78.097   " fill="#39b54a" data-original="#000000" style=""/>
	</g>
</g>
<g xmlns="http://www.w3.org/2000/svg">
	<g>
		<path d="M175.775,261.547l-63.887-63.888c-8.613-8.613-22.627-8.613-31.24,0c-8.612,8.612-8.612,22.627,0,31.239l53.172,53.172    l-21.213,21.213l-53.172-53.172c-10.155-10.154-15.232-23.494-15.232-36.833h-0.024v-78.984c0-12.181-9.909-22.09-22.089-22.09    c-12.181,0-22.09,9.909-22.09,22.09v90.136c0,19.336,8.088,38.012,22.189,51.239l89.079,83.561v28.578h85.083v-76.585    C196.351,292.456,189.043,274.815,175.775,261.547z" fill="#39b54a" data-original="#000000" style=""/>
	</g>
</g>
<g xmlns="http://www.w3.org/2000/svg">
	<g>
		<path d="M53.959,417.809v93.992h164.446v-93.992H53.959z M102.676,475.411c-5.858,5.858-15.355,5.858-21.213,0    c-5.858-5.858-5.858-15.355,0-21.213c5.858-5.858,15.355-5.858,21.213,0C108.534,460.056,108.534,469.553,102.676,475.411z" fill="#39b54a" data-original="#000000" style=""/>
	</g>
</g>
<g xmlns="http://www.w3.org/2000/svg">
	<g>
		<path d="M489.909,112.205c-12.18,0-22.089,9.909-22.089,22.09v78.984h-0.024c0,13.339-5.077,26.679-15.232,36.833l-53.172,53.172    l-21.213-21.213l53.172-53.172c8.612-8.612,8.612-22.627,0-31.239c-8.613-8.613-22.627-8.613-31.24,0l-63.887,63.888    c-13.269,13.268-20.576,30.909-20.576,49.676v76.585h85.083V359.23l89.079-83.561c14.101-13.227,22.189-31.903,22.189-51.239    v-90.136C511.999,122.114,502.09,112.205,489.909,112.205z" fill="#39b54a" data-original="#000000" style=""/>
	</g>
</g>
<g xmlns="http://www.w3.org/2000/svg">
	<g>
		<path d="M293.593,417.809v93.992h164.446v-93.992H293.593z M430.535,475.411c-5.858,5.858-15.355,5.858-21.213,0    c-5.858-5.858-5.858-15.355,0-21.213c5.858-5.858,15.355-5.858,21.213,0C436.393,460.056,436.393,469.553,430.535,475.411z" fill="#39b54a" data-original="#000000" style=""/>
	</g>
</g>
<g xmlns="http://www.w3.org/2000/svg">
</g>
<g xmlns="http://www.w3.org/2000/svg">
</g>
<g xmlns="http://www.w3.org/2000/svg">
</g>
<g xmlns="http://www.w3.org/2000/svg">
</g>
<g xmlns="http://www.w3.org/2000/svg">
</g>
<g xmlns="http://www.w3.org/2000/svg">
</g>
<g xmlns="http://www.w3.org/2000/svg">
</g>
<g xmlns="http://www.w3.org/2000/svg">
</g>
<g xmlns="http://www.w3.org/2000/svg">
</g>
<g xmlns="http://www.w3.org/2000/svg">
</g>
<g xmlns="http://www.w3.org/2000/svg">
</g>
<g xmlns="http://www.w3.org/2000/svg">
</g>
<g xmlns="http://www.w3.org/2000/svg">
</g>
<g xmlns="http://www.w3.org/2000/svg">
</g>
<g xmlns="http://www.w3.org/2000/svg">
</g>
</g></svg>
