<svg height="512pt" viewBox="0 0 512 512" width="512pt" xmlns="http://www.w3.org/2000/svg" xmlns:xlink="http://www.w3.org/1999/xlink"><linearGradient id="a" gradientTransform="matrix(1 0 0 -1 0 -22278)" gradientUnits="userSpaceOnUse" x1="0" x2="512" y1="-22534" y2="-22534"><stop offset="0" stop-color="#00f38d"/><stop offset="1" stop-color="#009eff"/></linearGradient><path d="m512 256c0 141.386719-114.613281 256-256 256s-256-114.613281-256-256 114.613281-256 256-256 256 114.613281 256 256zm0 0" fill="url(#a)"/><path d="m246 458.089844v-169.503906l-89 74.746093-19.292969-22.976562 100.921875-84.753907-100.921875-84.757812 19.292969-22.972656 89 74.746094v-168.515626l140.578125 116.417969-101.304687 85.082031 101.242187 85.027344zm30-171.101563v106.921875l63.804688-53.335937zm0-169.089843v106.3125l63.738281-53.53125zm0 0" fill="#fff"/></svg>