<?xml version="1.0" encoding="iso-8859-1"?>
<!-- Generator: Adobe Illustrator 21.0.0, SVG Export Plug-In . SVG Version: 6.00 Build 0)  -->
<svg xmlns="http://www.w3.org/2000/svg" xmlns:xlink="http://www.w3.org/1999/xlink" version="1.1" id="Capa_1" x="0px" y="0px" viewBox="0 0 512 512" style="enable-background:new 0 0 512 512;" xml:space="preserve" width="512" height="512">
<g>
	<g>
		<g>
			<g>
				<g>
					<g>
						<g>
							<g>
								<g>
									<g>
										<g>
											<g>
												<circle style="fill:#FFC200;" cx="256" cy="256" r="256"/>
											</g>
										</g>
									</g>
								</g>
							</g>
						</g>
					</g>
				</g>
			</g>
		</g>
	</g>
	<path style="fill:#FF9500;" d="M132.852,355.799l154.309,154.31c124.005-15.05,220.657-118.752,224.692-245.838L369.614,122.031   L132.852,355.799z"/>
	<g>
		<g>
			<g>
				<g>
					<g>
						<g>
							<g>
								<g>
									<g>
										<g>
											<g>
												<circle style="fill:#555A66;" cx="243.709" cy="231.302" r="166.709"/>
											</g>
										</g>
									</g>
								</g>
							</g>
						</g>
					</g>
				</g>
			</g>
		</g>
	</g>
	<g>
		<g>
			<g>
				<g>
					<g>
						<g>
							<g>
								<g>
									<g>
										<g>
											<g>
												<path style="fill:#414952;" d="M243.709,64.593c-0.237,0-0.472,0.008-0.709,0.009v333.401              c0.237,0.001,0.472,0.009,0.709,0.009c92.071,0,166.709-74.638,166.709-166.709              C410.419,139.231,335.78,64.593,243.709,64.593z"/>
											</g>
										</g>
									</g>
								</g>
							</g>
						</g>
					</g>
				</g>
			</g>
		</g>
	</g>
	<g>
		<g>
			<g>
				<g>
					<g>
						<g>
							<g>
								<g>
									<g>
										<g>
											<g>
												<circle style="fill:#FFFFFF;" cx="243.709" cy="231.302" r="122.667"/>
											</g>
										</g>
									</g>
								</g>
							</g>
						</g>
					</g>
				</g>
			</g>
		</g>
	</g>
	<g>
		<g>
			<g>
				<g>
					<g>
						<g>
							<g>
								<g>
									<g>
										<g>
											<g>
												<path style="fill:#E9EDF5;" d="M243.709,108.636c-0.237,0-0.473,0.008-0.709,0.009V353.96              c0.237,0.001,0.472,0.009,0.709,0.009c67.747,0,122.667-54.92,122.667-122.667              C366.376,163.555,311.456,108.636,243.709,108.636z"/>
											</g>
										</g>
									</g>
								</g>
							</g>
						</g>
					</g>
				</g>
			</g>
		</g>
	</g>
	<g>
		<polygon style="fill:#555A66;" points="258.305,246.302 183.263,246.302 183.263,216.302 228.305,216.302 228.305,146.854     258.305,146.854   "/>
	</g>
	<g>
		<rect x="243" y="146.854" style="fill:#414952;" width="15.305" height="99.449"/>
	</g>
	<g>
		<circle style="fill:#555A66;" cx="342.069" cy="342.069" r="80.069"/>
	</g>
	<g>
		<path style="fill:#333940;" d="M422.138,342.069c0-44.172-35.77-79.986-79.924-80.065v160.13    C386.368,422.056,422.138,386.241,422.138,342.069z"/>
	</g>
	<g>
		<polygon style="fill:#8DD62D;" points="329.996,387.527 291.835,349.367 313.048,328.153 329.996,345.101 374.986,300.111     396.199,321.324   "/>
	</g>
	<g>
		<polygon style="fill:#7EBA17;" points="374.986,300.111 342.214,332.883 342.214,375.309 396.199,321.324   "/>
	</g>
</g>















</svg>
