<svg id="Layer_1" enable-background="new 0 0 512 512" height="512" viewBox="0 0 512 512" width="512" xmlns="http://www.w3.org/2000/svg"><g><path d="m256 190.667c-43.708 0-79.267-35.559-79.267-79.267 0-8.284 6.716-15 15-15h128.533c8.284 0 15 6.716 15 15 .001 43.708-35.558 79.267-79.266 79.267z" fill="#ff0"/><path d="m335.267 111.4c0-8.284-6.716-15-15-15h-64.267v94.267c43.708 0 79.267-35.559 79.267-79.267z" fill="#ffd700"/><path d="m256 62.133c-8.284 0-15-6.716-15-15v-32.133c0-8.284 6.716-15 15-15s15 6.716 15 15v32.133c0 8.284-6.716 15-15 15z" fill="#000032"/><g fill="#ffd700"><path d="m256 224.933c-8.284 0-15 6.716-15 15v16.067c0 8.284 6.716 15 15 15s15-6.716 15-15v-16.067c0-8.284-6.716-15-15-15z"/><path d="m199.233 209.728c-7.175-4.144-16.348-1.685-20.49 5.49l-8.033 13.914c-4.143 7.174-1.685 16.348 5.49 20.49 8.195 4.733 16.966.614 20.49-5.49l8.033-13.914c4.143-7.175 1.685-16.348-5.49-20.49z"/><path d="m333.257 215.218c-4.143-7.175-13.317-9.632-20.49-5.49-7.175 4.142-9.633 13.316-5.49 20.49l8.033 13.914c3.72 6.443 12.651 10.016 20.49 5.49 7.175-4.142 9.633-13.316 5.49-20.49z"/><path d="m388.724 170.71-13.914-8.034c-7.176-4.143-16.348-1.684-20.49 5.49-4.143 7.174-1.685 16.349 5.49 20.491l13.914 8.034c8.195 4.731 16.966.613 20.49-5.49 4.142-7.175 1.684-16.349-5.49-20.491z"/><path d="m137.19 162.676-13.914 8.034c-7.175 4.142-9.633 13.316-5.49 20.491 3.689 6.39 12.589 10.053 20.49 5.49l13.914-8.034c7.175-4.142 9.633-13.316 5.49-20.491-4.142-7.175-13.32-9.632-20.49-5.49z"/></g><path d="m135.5 512c-8.284 0-15-6.716-15-15v-56.233c0-8.284 6.716-15 15-15s15 6.716 15 15v56.233c0 8.284-6.716 15-15 15z" fill="#008200"/><path d="m256 305.267c-52.416 0-97.974 29.919-120.5 73.574-22.526-43.656-68.084-73.574-120.5-73.574-8.284 0-15 6.716-15 15 0 74.715 60.785 135.5 135.5 135.5s135.5-60.786 135.5-135.5c0-8.285-6.716-15-15-15z" fill="#73df00"/><path d="m135.5 455.767c74.715 0 135.5-60.785 135.5-135.5 0-8.284-6.716-15-15-15-52.416 0-97.974 29.919-120.5 73.574z" fill="#00be00"/><path d="m376.5 512c-8.284 0-15-6.716-15-15v-56.233c0-8.284 6.716-15 15-15s15 6.716 15 15v56.233c0 8.284-6.716 15-15 15z" fill="#00be00"/><path d="m497 305.267c-52.416 0-97.974 29.919-120.5 73.574-22.526-43.656-68.084-73.574-120.5-73.574-8.284 0-15 6.716-15 15 0 74.715 60.785 135.5 135.5 135.5s135.5-60.786 135.5-135.5c0-8.285-6.716-15-15-15z" fill="#c8ff00"/><path d="m376.5 455.767c74.715 0 135.5-60.785 135.5-135.5 0-8.284-6.716-15-15-15-52.416 0-97.974 29.919-120.5 73.574z" fill="#73df00"/><path d="m497 512h-482c-8.284 0-15-6.716-15-15s6.716-15 15-15h482c8.284 0 15 6.716 15 15s-6.716 15-15 15z" fill="#c8ff00"/><path d="m497 482h-361.5v30h361.5c8.284 0 15-6.716 15-15s-6.716-15-15-15z" fill="#73df00"/><path d="m384.533 126.4h-257.066c-8.284 0-15-6.716-15-15 0-43.708 35.559-79.267 79.267-79.267h128.533c43.708 0 79.267 35.559 79.267 79.267-.001 8.284-6.717 15-15.001 15z" fill="#737781"/><path d="m399.533 111.4c0-43.708-35.559-79.267-79.267-79.267h-64.266v94.267h128.533c8.284 0 15-6.716 15-15z" fill="#444956"/></g></svg>